# xmcd CD database file
#
# Track frame offsets:
#	150
#	16172
#	29568
#	44193
#	61605
#	86383
#	102950
#	128192
#	153913
#	169043
#	170456
#	189671
#	207028
#	227029
#	247308
#	284349
#	306700
#	325848
#
# Disc length: 4498 seconds
#
# Revision: 0
# Processed by: cddbd v1.5.2PL0 Copyright (c) Steve Scherf et al.
# Submitted via: CDex 1.70beta2
#
DISCID=fc119012
DTITLE=Diana Jones  Jonathan Byrd - Live at Wohnzimmerkonzert, Illertal Cowboys Saloon, Illerberg, Germany - 1er oct. 2007 [CD 1/2)
DYEAR=2007
DGENRE=Country
TTITLE0=(Audience - Big Herbert Announcement - Tuning)
TTITLE1=Maryville
TTITLE2=Poor Boy
TTITLE3=Radio Soul
TTITLE4=Reckon I did
TTITLE5=Pretty Girl
TTITLE6=The Waitress
TTITLE7=Willow Tree
TTITLE8=Velma
TTITLE9=(Audience - Tuning)
TTITLE10=Things of this World
TTITLE11=Orphan's Home
TTITLE12=Clean
TTITLE13=Blue Eyes
TTITLE14=Radio
TTITLE15=Young Slaver
TTITLE16=Coyote
TTITLE17=Blackberry Blossom
EXTD=YEAR: 2007
EXTT0=
EXTT1=
EXTT2=
EXTT3=
EXTT4=
EXTT5=
EXTT6=
EXTT7=
EXTT8=
EXTT9=
EXTT10=
EXTT11=
EXTT12=
EXTT13=
EXTT14=
EXTT15=
EXTT16=
EXTT17=
PLAYORDER=
